<?xml version="1.0" encoding="UTF-8" standalone="no"?>
<!DOCTYPE svg PUBLIC "-//W3C//DTD SVG 1.1//EN"
 "http://www.w3.org/Graphics/SVG/1.1/DTD/svg11.dtd">
<!-- Generated by graphviz version 2.40.1 (20161225.0304)
 -->
<!-- Title: dependencies Pages: 1 -->
<svg width="1547pt" height="360pt"
 viewBox="0.00 0.00 1547.00 360.00" xmlns="http://www.w3.org/2000/svg" xmlns:xlink="http://www.w3.org/1999/xlink">
<g id="graph0" class="graph" transform="scale(1 1) rotate(0) translate(4 356)">
<title>dependencies</title>
<polygon fill="#ffffff" stroke="transparent" points="-4,4 -4,-356 1543,-356 1543,4 -4,4"/>
<text text-anchor="start" x="748.5091" y="-42.4" font-family="sans-serif" font-weight="bold" font-size="14.00" fill="#000000">Legend</text>
<polygon fill="#ffffb3" stroke="transparent" points="535.5,-10 535.5,-30 555.5,-30 555.5,-10 535.5,-10"/>
<text text-anchor="start" x="559.129" y="-15.4" font-family="sans-serif" font-size="14.00" fill="#000000"> &#160;Declarations</text>
<polygon fill="#8dd3c7" stroke="transparent" points="648.5,-10 648.5,-30 668.5,-30 668.5,-10 648.5,-10"/>
<text text-anchor="start" x="672.2251" y="-15.4" font-family="sans-serif" font-size="14.00" fill="#000000"> &#160;Module</text>
<polygon fill="#80b1d3" stroke="transparent" points="734.5,-10 734.5,-30 754.5,-30 754.5,-10 734.5,-10"/>
<text text-anchor="start" x="758.2812" y="-15.4" font-family="sans-serif" font-size="14.00" fill="#000000"> &#160;Bootstrap</text>
<polygon fill="#fdb462" stroke="transparent" points="831.5,-10 831.5,-30 851.5,-30 851.5,-10 831.5,-10"/>
<text text-anchor="start" x="855.1732" y="-15.4" font-family="sans-serif" font-size="14.00" fill="#000000"> &#160;Providers</text>
<polygon fill="#fb8072" stroke="transparent" points="927.5,-10 927.5,-30 947.5,-30 947.5,-10 927.5,-10"/>
<text text-anchor="start" x="951.2258" y="-15.4" font-family="sans-serif" font-size="14.00" fill="#000000"> &#160;Exports</text>
<g id="clust1" class="cluster">
<title>cluster_AppModule</title>
<polygon fill="none" stroke="#000000" stroke-dasharray="1,5" points="249,-146 249,-344 956,-344 956,-146 249,-146"/>
</g>
<g id="clust2" class="cluster">
<title>cluster_AppModule_declarations</title>
<polygon fill="none" stroke="#000000" points="531,-154 531,-206 948,-206 948,-154 531,-154"/>
</g>
<g id="clust6" class="cluster">
<title>cluster_AppModule_imports</title>
<polygon fill="none" stroke="#000000" points="375,-154 375,-206 523,-206 523,-154 375,-154"/>
</g>
<g id="clust8" class="cluster">
<title>cluster_AppModule_bootstrap</title>
<polygon fill="none" stroke="#000000" points="548,-284 548,-336 672,-336 672,-284 548,-284"/>
</g>
<g id="clust9" class="cluster">
<title>cluster_AppModule_providers</title>
<polygon fill="none" stroke="#000000" points="257,-154 257,-206 367,-206 367,-154 257,-154"/>
</g>
<g id="clust10" class="cluster">
<title>cluster_ChildDetailModule</title>
<polygon fill="none" stroke="#000000" stroke-dasharray="1,5" points="1009,-70 1009,-206 1187,-206 1187,-70 1009,-70"/>
</g>
<g id="clust11" class="cluster">
<title>cluster_ChildDetailModule_declarations</title>
<polygon fill="none" stroke="#000000" points="1017,-78 1017,-130 1179,-130 1179,-78 1017,-78"/>
</g>
<g id="clust17" class="cluster">
<title>cluster_DetailModule</title>
<polygon fill="none" stroke="#000000" stroke-dasharray="1,5" points="1195,-70 1195,-206 1343,-206 1343,-70 1195,-70"/>
</g>
<g id="clust18" class="cluster">
<title>cluster_DetailModule_declarations</title>
<polygon fill="none" stroke="#000000" points="1203,-78 1203,-130 1335,-130 1335,-78 1203,-78"/>
</g>
<g id="clust24" class="cluster">
<title>cluster_DevModuleModule</title>
<polygon fill="none" stroke="#000000" stroke-dasharray="1,5" points="1351,-70 1351,-206 1531,-206 1531,-70 1351,-70"/>
</g>
<g id="clust25" class="cluster">
<title>cluster_DevModuleModule_declarations</title>
<polygon fill="none" stroke="#000000" points="1359,-78 1359,-130 1523,-130 1523,-78 1359,-78"/>
</g>
<g id="clust31" class="cluster">
<title>cluster_StarWarsApiModule</title>
<polygon fill="none" stroke="#000000" stroke-dasharray="1,5" points="8,-70 8,-138 1001,-138 1001,-70 8,-70"/>
</g>
<g id="clust32" class="cluster">
<title>cluster_StarWarsApiModule_declarations</title>
<polygon fill="none" stroke="#000000" points="491,-78 491,-130 993,-130 993,-78 491,-78"/>
</g>
<g id="clust36" class="cluster">
<title>cluster_StarWarsApiModule_imports</title>
<polygon fill="none" stroke="#000000" points="325,-78 325,-130 483,-130 483,-78 325,-78"/>
</g>
<g id="clust39" class="cluster">
<title>cluster_StarWarsApiModule_providers</title>
<polygon fill="none" stroke="#000000" points="16,-78 16,-130 317,-130 317,-78 16,-78"/>
</g>
<!-- AppComponent -->
<g id="node1" class="node">
<title>AppComponent</title>
<polygon fill="#ffffb3" stroke="#000000" points="939.9399,-198 834.0601,-198 834.0601,-162 939.9399,-162 939.9399,-198"/>
<text text-anchor="middle" x="887" y="-175.8" font-family="Times,serif" font-size="14.00" fill="#000000">AppComponent</text>
</g>
<!-- AppModule -->
<g id="node4" class="node">
<title>AppModule</title>
<polygon fill="#8dd3c7" stroke="#000000" points="651.6571,-263 648.6571,-267 627.6571,-267 624.6571,-263 568.3429,-263 568.3429,-227 651.6571,-227 651.6571,-263"/>
<text text-anchor="middle" x="610" y="-240.8" font-family="Times,serif" font-size="14.00" fill="#000000">AppModule</text>
</g>
<!-- AppComponent&#45;&gt;AppModule -->
<g id="edge1" class="edge">
<title>AppComponent&#45;&gt;AppModule</title>
<path fill="none" stroke="#000000" d="M887,-198.2843C887,-219.3211 887,-251 887,-251 887,-251 661.7696,-251 661.7696,-251"/>
<polygon fill="#000000" stroke="#000000" points="661.7696,-247.5001 651.7696,-251 661.7696,-254.5001 661.7696,-247.5001"/>
</g>
<!-- AboutComponent -->
<g id="node2" class="node">
<title>AboutComponent</title>
<polygon fill="#ffffb3" stroke="#000000" points="816.3301,-198 699.6699,-198 699.6699,-162 816.3301,-162 816.3301,-198"/>
<text text-anchor="middle" x="758" y="-175.8" font-family="Times,serif" font-size="14.00" fill="#000000">AboutComponent</text>
</g>
<!-- AboutComponent&#45;&gt;AppModule -->
<g id="edge2" class="edge">
<title>AboutComponent&#45;&gt;AppModule</title>
<path fill="none" stroke="#000000" d="M758,-198.0225C758,-215.3734 758,-239 758,-239 758,-239 662.015,-239 662.015,-239"/>
<polygon fill="#000000" stroke="#000000" points="662.015,-235.5001 652.015,-239 662.0149,-242.5001 662.015,-235.5001"/>
</g>
<!-- NoContentComponent -->
<g id="node3" class="node">
<title>NoContentComponent</title>
<polygon fill="#ffffb3" stroke="#000000" points="681.2716,-198 538.7284,-198 538.7284,-162 681.2716,-162 681.2716,-198"/>
<text text-anchor="middle" x="610" y="-175.8" font-family="Times,serif" font-size="14.00" fill="#000000">NoContentComponent</text>
</g>
<!-- NoContentComponent&#45;&gt;AppModule -->
<g id="edge3" class="edge">
<title>NoContentComponent&#45;&gt;AppModule</title>
<path fill="none" stroke="#000000" d="M610,-198.1061C610,-198.1061 610,-216.991 610,-216.991"/>
<polygon fill="#000000" stroke="#000000" points="606.5001,-216.9909 610,-226.991 613.5001,-216.991 606.5001,-216.9909"/>
</g>
<!-- AppComponent  -->
<g id="node6" class="node">
<title>AppComponent </title>
<polygon fill="#80b1d3" stroke="#000000" points="664.439,-328 555.561,-328 555.561,-292 664.439,-292 664.439,-328"/>
<text text-anchor="middle" x="610" y="-305.8" font-family="Times,serif" font-size="14.00" fill="#000000">AppComponent </text>
</g>
<!-- AppModule&#45;&gt;AppComponent  -->
<g id="edge5" class="edge">
<title>AppModule&#45;&gt;AppComponent </title>
<path fill="none" stroke="#000000" stroke-dasharray="1,5" d="M610,-263.1061C610,-263.1061 610,-281.991 610,-281.991"/>
<polygon fill="#000000" stroke="#000000" points="606.5001,-281.9909 610,-291.991 613.5001,-281.991 606.5001,-281.9909"/>
</g>
<!-- StarWarsApiModule -->
<g id="node5" class="node">
<title>StarWarsApiModule</title>
<polygon fill="#8dd3c7" stroke="#000000" points="515.1303,-198 512.1303,-202 491.1303,-202 488.1303,-198 382.8697,-198 382.8697,-162 515.1303,-162 515.1303,-198"/>
<text text-anchor="middle" x="449" y="-175.8" font-family="Times,serif" font-size="14.00" fill="#000000">StarWarsApiModule</text>
</g>
<!-- StarWarsApiModule&#45;&gt;AppModule -->
<g id="edge4" class="edge">
<title>StarWarsApiModule&#45;&gt;AppModule</title>
<path fill="none" stroke="#000000" d="M449,-198.0225C449,-215.3734 449,-239 449,-239 449,-239 558.1194,-239 558.1194,-239"/>
<polygon fill="#000000" stroke="#000000" points="558.1195,-242.5001 568.1194,-239 558.1194,-235.5001 558.1195,-242.5001"/>
</g>
<!-- AppState -->
<g id="node7" class="node">
<title>AppState</title>
<ellipse fill="#fdb462" stroke="#000000" cx="312" cy="-180" rx="46.9477" ry="18"/>
<text text-anchor="middle" x="312" y="-175.8" font-family="Times,serif" font-size="14.00" fill="#000000">AppState</text>
</g>
<!-- AppState&#45;&gt;AppModule -->
<g id="edge6" class="edge">
<title>AppState&#45;&gt;AppModule</title>
<path fill="none" stroke="#000000" d="M312,-198.2843C312,-219.3211 312,-251 312,-251 312,-251 558.2506,-251 558.2506,-251"/>
<polygon fill="#000000" stroke="#000000" points="558.2506,-254.5001 568.2506,-251 558.2506,-247.5001 558.2506,-254.5001"/>
</g>
<!-- ChildDetailComponent -->
<g id="node8" class="node">
<title>ChildDetailComponent</title>
<polygon fill="#ffffb3" stroke="#000000" points="1171.1582,-122 1024.8418,-122 1024.8418,-86 1171.1582,-86 1171.1582,-122"/>
<text text-anchor="middle" x="1098" y="-99.8" font-family="Times,serif" font-size="14.00" fill="#000000">ChildDetailComponent</text>
</g>
<!-- ChildDetailModule -->
<g id="node9" class="node">
<title>ChildDetailModule</title>
<polygon fill="#8dd3c7" stroke="#000000" points="1160.3753,-198 1157.3753,-202 1136.3753,-202 1133.3753,-198 1035.6247,-198 1035.6247,-162 1160.3753,-162 1160.3753,-198"/>
<text text-anchor="middle" x="1098" y="-175.8" font-family="Times,serif" font-size="14.00" fill="#000000">ChildDetailModule</text>
</g>
<!-- ChildDetailComponent&#45;&gt;ChildDetailModule -->
<g id="edge7" class="edge">
<title>ChildDetailComponent&#45;&gt;ChildDetailModule</title>
<path fill="none" stroke="#000000" d="M1098,-122.0109C1098,-122.0109 1098,-151.855 1098,-151.855"/>
<polygon fill="#000000" stroke="#000000" points="1094.5001,-151.8549 1098,-161.855 1101.5001,-151.855 1094.5001,-151.8549"/>
</g>
<!-- DetailComponent -->
<g id="node10" class="node">
<title>DetailComponent</title>
<polygon fill="#ffffb3" stroke="#000000" points="1326.5409,-122 1211.4591,-122 1211.4591,-86 1326.5409,-86 1326.5409,-122"/>
<text text-anchor="middle" x="1269" y="-99.8" font-family="Times,serif" font-size="14.00" fill="#000000">DetailComponent</text>
</g>
<!-- DetailModule -->
<g id="node11" class="node">
<title>DetailModule</title>
<polygon fill="#8dd3c7" stroke="#000000" points="1315.7577,-198 1312.7577,-202 1291.7577,-202 1288.7577,-198 1222.2423,-198 1222.2423,-162 1315.7577,-162 1315.7577,-198"/>
<text text-anchor="middle" x="1269" y="-175.8" font-family="Times,serif" font-size="14.00" fill="#000000">DetailModule</text>
</g>
<!-- DetailComponent&#45;&gt;DetailModule -->
<g id="edge8" class="edge">
<title>DetailComponent&#45;&gt;DetailModule</title>
<path fill="none" stroke="#000000" d="M1269,-122.0109C1269,-122.0109 1269,-151.855 1269,-151.855"/>
<polygon fill="#000000" stroke="#000000" points="1265.5001,-151.8549 1269,-161.855 1272.5001,-151.855 1265.5001,-151.8549"/>
</g>
<!-- DevModuleComponent -->
<g id="node12" class="node">
<title>DevModuleComponent</title>
<polygon fill="#ffffb3" stroke="#000000" points="1515.2035,-122 1366.7965,-122 1366.7965,-86 1515.2035,-86 1515.2035,-122"/>
<text text-anchor="middle" x="1441" y="-99.8" font-family="Times,serif" font-size="14.00" fill="#000000">DevModuleComponent</text>
</g>
<!-- DevModuleModule -->
<g id="node13" class="node">
<title>DevModuleModule</title>
<polygon fill="#8dd3c7" stroke="#000000" points="1504.4215,-198 1501.4215,-202 1480.4215,-202 1477.4215,-198 1377.5785,-198 1377.5785,-162 1504.4215,-162 1504.4215,-198"/>
<text text-anchor="middle" x="1441" y="-175.8" font-family="Times,serif" font-size="14.00" fill="#000000">DevModuleModule</text>
</g>
<!-- DevModuleComponent&#45;&gt;DevModuleModule -->
<g id="edge9" class="edge">
<title>DevModuleComponent&#45;&gt;DevModuleModule</title>
<path fill="none" stroke="#000000" d="M1441,-122.0109C1441,-122.0109 1441,-151.855 1441,-151.855"/>
<polygon fill="#000000" stroke="#000000" points="1437.5001,-151.8549 1441,-161.855 1444.5001,-151.855 1437.5001,-151.8549"/>
</g>
<!-- StarWarsApiComponent -->
<g id="node14" class="node">
<title>StarWarsApiComponent</title>
<polygon fill="#ffffb3" stroke="#000000" points="985.413,-122 830.587,-122 830.587,-86 985.413,-86 985.413,-122"/>
<text text-anchor="middle" x="908" y="-99.8" font-family="Times,serif" font-size="14.00" fill="#000000">StarWarsApiComponent</text>
</g>
<!-- StarWarsApiComponent&#45;&gt;StarWarsApiModule -->
<g id="edge10" class="edge">
<title>StarWarsApiComponent&#45;&gt;StarWarsApiModule</title>
<path fill="none" stroke="#000000" d="M887,-122.1944C887,-130.2782 887,-138 887,-138 887,-138 511.1985,-138 511.1985,-138 511.1985,-138 511.1985,-151.9445 511.1985,-151.9445"/>
<polygon fill="#000000" stroke="#000000" points="507.6986,-151.9444 511.1985,-161.9445 514.6986,-151.9445 507.6986,-151.9444"/>
</g>
<!-- PlanetListComponent -->
<g id="node15" class="node">
<title>PlanetListComponent</title>
<polygon fill="#ffffb3" stroke="#000000" points="813.1038,-122 674.8962,-122 674.8962,-86 813.1038,-86 813.1038,-122"/>
<text text-anchor="middle" x="744" y="-99.8" font-family="Times,serif" font-size="14.00" fill="#000000">PlanetListComponent</text>
</g>
<!-- PlanetListComponent&#45;&gt;StarWarsApiModule -->
<g id="edge11" class="edge">
<title>PlanetListComponent&#45;&gt;StarWarsApiModule</title>
<path fill="none" stroke="#000000" d="M690.6105,-122.0579C690.6105,-126.4945 690.6105,-130 690.6105,-130 690.6105,-130 507.0821,-130 507.0821,-130 507.0821,-130 507.0821,-151.9489 507.0821,-151.9489"/>
<polygon fill="#000000" stroke="#000000" points="503.5821,-151.9488 507.0821,-161.9489 510.5821,-151.9489 503.5821,-151.9488"/>
</g>
<!-- SpeciesDetailComponent -->
<g id="node16" class="node">
<title>SpeciesDetailComponent</title>
<polygon fill="#ffffb3" stroke="#000000" points="657.3019,-122 498.6981,-122 498.6981,-86 657.3019,-86 657.3019,-122"/>
<text text-anchor="middle" x="578" y="-99.8" font-family="Times,serif" font-size="14.00" fill="#000000">SpeciesDetailComponent</text>
</g>
<!-- SpeciesDetailComponent&#45;&gt;StarWarsApiModule -->
<g id="edge12" class="edge">
<title>SpeciesDetailComponent&#45;&gt;StarWarsApiModule</title>
<path fill="none" stroke="#000000" d="M502.9656,-122.0109C502.9656,-122.0109 502.9656,-151.855 502.9656,-151.855"/>
<polygon fill="#000000" stroke="#000000" points="499.4657,-151.8549 502.9656,-161.855 506.4657,-151.855 499.4657,-151.8549"/>
</g>
<!-- StarWarsStoreModule -->
<g id="node17" class="node">
<title>StarWarsStoreModule</title>
<polygon fill="#8dd3c7" stroke="#000000" points="474.6811,-122 471.6811,-126 450.6811,-126 447.6811,-122 333.3189,-122 333.3189,-86 474.6811,-86 474.6811,-122"/>
<text text-anchor="middle" x="404" y="-99.8" font-family="Times,serif" font-size="14.00" fill="#000000">StarWarsStoreModule</text>
</g>
<!-- StarWarsStoreModule&#45;&gt;StarWarsApiModule -->
<g id="edge13" class="edge">
<title>StarWarsStoreModule&#45;&gt;StarWarsApiModule</title>
<path fill="none" stroke="#000000" d="M451.6142,-122.0109C451.6142,-122.0109 451.6142,-151.855 451.6142,-151.855"/>
<polygon fill="#000000" stroke="#000000" points="448.1142,-151.8549 451.6142,-161.855 455.1142,-151.855 448.1142,-151.8549"/>
</g>
<!-- PlanetService -->
<g id="node18" class="node">
<title>PlanetService</title>
<ellipse fill="#fdb462" stroke="#000000" cx="245" cy="-104" rx="64.2591" ry="18"/>
<text text-anchor="middle" x="245" y="-99.8" font-family="Times,serif" font-size="14.00" fill="#000000">PlanetService</text>
</g>
<!-- PlanetService&#45;&gt;StarWarsApiModule -->
<g id="edge14" class="edge">
<title>PlanetService&#45;&gt;StarWarsApiModule</title>
<path fill="none" stroke="#000000" d="M287.0778,-117.7524C287.0778,-130.0013 287.0778,-146 287.0778,-146 287.0778,-146 428.6378,-146 428.6378,-146 428.6378,-146 428.6378,-151.8056 428.6378,-151.8056"/>
<polygon fill="#000000" stroke="#000000" points="425.1379,-151.8055 428.6378,-161.8056 432.1379,-151.8056 425.1379,-151.8055"/>
</g>
<!-- SpeciesService -->
<g id="node19" class="node">
<title>SpeciesService</title>
<ellipse fill="#fdb462" stroke="#000000" cx="93" cy="-104" rx="69.4761" ry="18"/>
<text text-anchor="middle" x="93" y="-99.8" font-family="Times,serif" font-size="14.00" fill="#000000">SpeciesService</text>
</g>
<!-- SpeciesService&#45;&gt;StarWarsApiModule -->
<g id="edge15" class="edge">
<title>SpeciesService&#45;&gt;StarWarsApiModule</title>
<path fill="none" stroke="#000000" d="M93,-122.0511C93,-136.373 93,-154 93,-154 93,-154 405.6615,-154 405.6615,-154 405.6615,-154 405.6615,-154.7942 405.6615,-154.7942"/>
<polygon fill="#000000" stroke="#000000" points="402.1616,-151.9421 405.6615,-161.9421 409.1616,-151.9422 402.1616,-151.9421"/>
</g>
</g>
</svg>
