<?xml version="1.0" encoding="UTF-8" standalone="no"?>
<!DOCTYPE svg PUBLIC "-//W3C//DTD SVG 1.1//EN"
 "http://www.w3.org/Graphics/SVG/1.1/DTD/svg11.dtd">
<!-- Generated by graphviz version 2.40.1 (20161225.0304)
 -->
<!-- Title: dependencies Pages: 1 -->
<svg width="731pt" height="284pt"
 viewBox="0.00 0.00 731.00 284.00" xmlns="http://www.w3.org/2000/svg" xmlns:xlink="http://www.w3.org/1999/xlink">
<g id="graph0" class="graph" transform="scale(1 1) rotate(0) translate(4 280)">
<title>dependencies</title>
<polygon fill="#ffffff" stroke="transparent" points="-4,4 -4,-280 727,-280 727,4 -4,4"/>
<text text-anchor="start" x="340.5091" y="-42.4" font-family="sans-serif" font-weight="bold" font-size="14.00" fill="#000000">Legend</text>
<polygon fill="#ffffb3" stroke="transparent" points="127.5,-10 127.5,-30 147.5,-30 147.5,-10 127.5,-10"/>
<text text-anchor="start" x="151.129" y="-15.4" font-family="sans-serif" font-size="14.00" fill="#000000"> &#160;Declarations</text>
<polygon fill="#8dd3c7" stroke="transparent" points="240.5,-10 240.5,-30 260.5,-30 260.5,-10 240.5,-10"/>
<text text-anchor="start" x="264.2251" y="-15.4" font-family="sans-serif" font-size="14.00" fill="#000000"> &#160;Module</text>
<polygon fill="#80b1d3" stroke="transparent" points="326.5,-10 326.5,-30 346.5,-30 346.5,-10 326.5,-10"/>
<text text-anchor="start" x="350.2812" y="-15.4" font-family="sans-serif" font-size="14.00" fill="#000000"> &#160;Bootstrap</text>
<polygon fill="#fdb462" stroke="transparent" points="423.5,-10 423.5,-30 443.5,-30 443.5,-10 423.5,-10"/>
<text text-anchor="start" x="447.1732" y="-15.4" font-family="sans-serif" font-size="14.00" fill="#000000"> &#160;Providers</text>
<polygon fill="#fb8072" stroke="transparent" points="519.5,-10 519.5,-30 539.5,-30 539.5,-10 519.5,-10"/>
<text text-anchor="start" x="543.2258" y="-15.4" font-family="sans-serif" font-size="14.00" fill="#000000"> &#160;Exports</text>
<g id="clust1" class="cluster">
<title>cluster_AppModule</title>
<polygon fill="none" stroke="#000000" stroke-dasharray="1,5" points="8,-70 8,-268 715,-268 715,-70 8,-70"/>
</g>
<g id="clust2" class="cluster">
<title>cluster_AppModule_declarations</title>
<polygon fill="none" stroke="#000000" points="290,-78 290,-130 707,-130 707,-78 290,-78"/>
</g>
<g id="clust6" class="cluster">
<title>cluster_AppModule_imports</title>
<polygon fill="none" stroke="#000000" points="134,-78 134,-130 282,-130 282,-78 134,-78"/>
</g>
<g id="clust8" class="cluster">
<title>cluster_AppModule_bootstrap</title>
<polygon fill="none" stroke="#000000" points="307,-208 307,-260 431,-260 431,-208 307,-208"/>
</g>
<g id="clust9" class="cluster">
<title>cluster_AppModule_providers</title>
<polygon fill="none" stroke="#000000" points="16,-78 16,-130 126,-130 126,-78 16,-78"/>
</g>
<!-- AppComponent -->
<g id="node1" class="node">
<title>AppComponent</title>
<polygon fill="#ffffb3" stroke="#000000" points="698.9399,-122 593.0601,-122 593.0601,-86 698.9399,-86 698.9399,-122"/>
<text text-anchor="middle" x="646" y="-99.8" font-family="Times,serif" font-size="14.00" fill="#000000">AppComponent</text>
</g>
<!-- AppModule -->
<g id="node4" class="node">
<title>AppModule</title>
<polygon fill="#8dd3c7" stroke="#000000" points="410.6571,-187 407.6571,-191 386.6571,-191 383.6571,-187 327.3429,-187 327.3429,-151 410.6571,-151 410.6571,-187"/>
<text text-anchor="middle" x="369" y="-164.8" font-family="Times,serif" font-size="14.00" fill="#000000">AppModule</text>
</g>
<!-- AppComponent&#45;&gt;AppModule -->
<g id="edge1" class="edge">
<title>AppComponent&#45;&gt;AppModule</title>
<path fill="none" stroke="#000000" d="M646,-122.2843C646,-143.3211 646,-175 646,-175 646,-175 420.7696,-175 420.7696,-175"/>
<polygon fill="#000000" stroke="#000000" points="420.7696,-171.5001 410.7696,-175 420.7696,-178.5001 420.7696,-171.5001"/>
</g>
<!-- AboutComponent -->
<g id="node2" class="node">
<title>AboutComponent</title>
<polygon fill="#ffffb3" stroke="#000000" points="575.3301,-122 458.6699,-122 458.6699,-86 575.3301,-86 575.3301,-122"/>
<text text-anchor="middle" x="517" y="-99.8" font-family="Times,serif" font-size="14.00" fill="#000000">AboutComponent</text>
</g>
<!-- AboutComponent&#45;&gt;AppModule -->
<g id="edge2" class="edge">
<title>AboutComponent&#45;&gt;AppModule</title>
<path fill="none" stroke="#000000" d="M517,-122.0225C517,-139.3734 517,-163 517,-163 517,-163 421.015,-163 421.015,-163"/>
<polygon fill="#000000" stroke="#000000" points="421.015,-159.5001 411.015,-163 421.0149,-166.5001 421.015,-159.5001"/>
</g>
<!-- NoContentComponent -->
<g id="node3" class="node">
<title>NoContentComponent</title>
<polygon fill="#ffffb3" stroke="#000000" points="440.2716,-122 297.7284,-122 297.7284,-86 440.2716,-86 440.2716,-122"/>
<text text-anchor="middle" x="369" y="-99.8" font-family="Times,serif" font-size="14.00" fill="#000000">NoContentComponent</text>
</g>
<!-- NoContentComponent&#45;&gt;AppModule -->
<g id="edge3" class="edge">
<title>NoContentComponent&#45;&gt;AppModule</title>
<path fill="none" stroke="#000000" d="M369,-122.1061C369,-122.1061 369,-140.991 369,-140.991"/>
<polygon fill="#000000" stroke="#000000" points="365.5001,-140.9909 369,-150.991 372.5001,-140.991 365.5001,-140.9909"/>
</g>
<!-- AppComponent  -->
<g id="node6" class="node">
<title>AppComponent </title>
<polygon fill="#80b1d3" stroke="#000000" points="423.439,-252 314.561,-252 314.561,-216 423.439,-216 423.439,-252"/>
<text text-anchor="middle" x="369" y="-229.8" font-family="Times,serif" font-size="14.00" fill="#000000">AppComponent </text>
</g>
<!-- AppModule&#45;&gt;AppComponent  -->
<g id="edge5" class="edge">
<title>AppModule&#45;&gt;AppComponent </title>
<path fill="none" stroke="#000000" stroke-dasharray="1,5" d="M369,-187.1061C369,-187.1061 369,-205.991 369,-205.991"/>
<polygon fill="#000000" stroke="#000000" points="365.5001,-205.9909 369,-215.991 372.5001,-205.991 365.5001,-205.9909"/>
</g>
<!-- StarWarsApiModule -->
<g id="node5" class="node">
<title>StarWarsApiModule</title>
<polygon fill="#8dd3c7" stroke="#000000" points="274.1303,-122 271.1303,-126 250.1303,-126 247.1303,-122 141.8697,-122 141.8697,-86 274.1303,-86 274.1303,-122"/>
<text text-anchor="middle" x="208" y="-99.8" font-family="Times,serif" font-size="14.00" fill="#000000">StarWarsApiModule</text>
</g>
<!-- StarWarsApiModule&#45;&gt;AppModule -->
<g id="edge4" class="edge">
<title>StarWarsApiModule&#45;&gt;AppModule</title>
<path fill="none" stroke="#000000" d="M208,-122.0225C208,-139.3734 208,-163 208,-163 208,-163 317.1194,-163 317.1194,-163"/>
<polygon fill="#000000" stroke="#000000" points="317.1195,-166.5001 327.1194,-163 317.1194,-159.5001 317.1195,-166.5001"/>
</g>
<!-- AppState -->
<g id="node7" class="node">
<title>AppState</title>
<ellipse fill="#fdb462" stroke="#000000" cx="71" cy="-104" rx="46.9477" ry="18"/>
<text text-anchor="middle" x="71" y="-99.8" font-family="Times,serif" font-size="14.00" fill="#000000">AppState</text>
</g>
<!-- AppState&#45;&gt;AppModule -->
<g id="edge6" class="edge">
<title>AppState&#45;&gt;AppModule</title>
<path fill="none" stroke="#000000" d="M71,-122.2843C71,-143.3211 71,-175 71,-175 71,-175 317.2506,-175 317.2506,-175"/>
<polygon fill="#000000" stroke="#000000" points="317.2506,-178.5001 327.2506,-175 317.2506,-171.5001 317.2506,-178.5001"/>
</g>
</g>
</svg>
