<?xml version="1.0" encoding="UTF-8" standalone="no"?>
<!DOCTYPE svg PUBLIC "-//W3C//DTD SVG 1.1//EN"
 "http://www.w3.org/Graphics/SVG/1.1/DTD/svg11.dtd">
<!-- Generated by graphviz version 2.40.1 (20161225.0304)
 -->
<!-- Title: dependencies Pages: 1 -->
<svg width="1017pt" height="211pt"
 viewBox="0.00 0.00 1017.00 211.00" xmlns="http://www.w3.org/2000/svg" xmlns:xlink="http://www.w3.org/1999/xlink">
<g id="graph0" class="graph" transform="scale(1 1) rotate(0) translate(4 207)">
<title>dependencies</title>
<polygon fill="#ffffff" stroke="transparent" points="-4,4 -4,-207 1013,-207 1013,4 -4,4"/>
<text text-anchor="start" x="483.5091" y="-42.4" font-family="sans-serif" font-weight="bold" font-size="14.00" fill="#000000">Legend</text>
<polygon fill="#ffffb3" stroke="transparent" points="270.5,-10 270.5,-30 290.5,-30 290.5,-10 270.5,-10"/>
<text text-anchor="start" x="294.129" y="-15.4" font-family="sans-serif" font-size="14.00" fill="#000000"> &#160;Declarations</text>
<polygon fill="#8dd3c7" stroke="transparent" points="383.5,-10 383.5,-30 403.5,-30 403.5,-10 383.5,-10"/>
<text text-anchor="start" x="407.2251" y="-15.4" font-family="sans-serif" font-size="14.00" fill="#000000"> &#160;Module</text>
<polygon fill="#80b1d3" stroke="transparent" points="469.5,-10 469.5,-30 489.5,-30 489.5,-10 469.5,-10"/>
<text text-anchor="start" x="493.2812" y="-15.4" font-family="sans-serif" font-size="14.00" fill="#000000"> &#160;Bootstrap</text>
<polygon fill="#fdb462" stroke="transparent" points="566.5,-10 566.5,-30 586.5,-30 586.5,-10 566.5,-10"/>
<text text-anchor="start" x="590.1732" y="-15.4" font-family="sans-serif" font-size="14.00" fill="#000000"> &#160;Providers</text>
<polygon fill="#fb8072" stroke="transparent" points="662.5,-10 662.5,-30 682.5,-30 682.5,-10 662.5,-10"/>
<text text-anchor="start" x="686.2258" y="-15.4" font-family="sans-serif" font-size="14.00" fill="#000000"> &#160;Exports</text>
<g id="clust1" class="cluster">
<title>cluster_StarWarsApiModule</title>
<polygon fill="none" stroke="#000000" stroke-dasharray="1,5" points="8,-70 8,-195 1001,-195 1001,-70 8,-70"/>
</g>
<g id="clust2" class="cluster">
<title>cluster_StarWarsApiModule_declarations</title>
<polygon fill="none" stroke="#000000" points="491,-78 491,-130 993,-130 993,-78 491,-78"/>
</g>
<g id="clust6" class="cluster">
<title>cluster_StarWarsApiModule_imports</title>
<polygon fill="none" stroke="#000000" points="325,-78 325,-130 483,-130 483,-78 325,-78"/>
</g>
<g id="clust9" class="cluster">
<title>cluster_StarWarsApiModule_providers</title>
<polygon fill="none" stroke="#000000" points="16,-78 16,-130 317,-130 317,-78 16,-78"/>
</g>
<!-- StarWarsApiComponent -->
<g id="node1" class="node">
<title>StarWarsApiComponent</title>
<polygon fill="#ffffb3" stroke="#000000" points="985.413,-122 830.587,-122 830.587,-86 985.413,-86 985.413,-122"/>
<text text-anchor="middle" x="908" y="-99.8" font-family="Times,serif" font-size="14.00" fill="#000000">StarWarsApiComponent</text>
</g>
<!-- StarWarsApiModule -->
<g id="node4" class="node">
<title>StarWarsApiModule</title>
<polygon fill="#8dd3c7" stroke="#000000" points="557.1303,-187 554.1303,-191 533.1303,-191 530.1303,-187 424.8697,-187 424.8697,-151 557.1303,-151 557.1303,-187"/>
<text text-anchor="middle" x="491" y="-164.8" font-family="Times,serif" font-size="14.00" fill="#000000">StarWarsApiModule</text>
</g>
<!-- StarWarsApiComponent&#45;&gt;StarWarsApiModule -->
<g id="edge1" class="edge">
<title>StarWarsApiComponent&#45;&gt;StarWarsApiModule</title>
<path fill="none" stroke="#000000" d="M908,-122.2843C908,-143.3211 908,-175 908,-175 908,-175 567.536,-175 567.536,-175"/>
<polygon fill="#000000" stroke="#000000" points="567.536,-171.5001 557.536,-175 567.536,-178.5001 567.536,-171.5001"/>
</g>
<!-- PlanetListComponent -->
<g id="node2" class="node">
<title>PlanetListComponent</title>
<polygon fill="#ffffb3" stroke="#000000" points="813.1038,-122 674.8962,-122 674.8962,-86 813.1038,-86 813.1038,-122"/>
<text text-anchor="middle" x="744" y="-99.8" font-family="Times,serif" font-size="14.00" fill="#000000">PlanetListComponent</text>
</g>
<!-- PlanetListComponent&#45;&gt;StarWarsApiModule -->
<g id="edge2" class="edge">
<title>PlanetListComponent&#45;&gt;StarWarsApiModule</title>
<path fill="none" stroke="#000000" d="M744,-122.0225C744,-139.3734 744,-163 744,-163 744,-163 567.1423,-163 567.1423,-163"/>
<polygon fill="#000000" stroke="#000000" points="567.1423,-159.5001 557.1423,-163 567.1423,-166.5001 567.1423,-159.5001"/>
</g>
<!-- SpeciesDetailComponent -->
<g id="node3" class="node">
<title>SpeciesDetailComponent</title>
<polygon fill="#ffffb3" stroke="#000000" points="657.3019,-122 498.6981,-122 498.6981,-86 657.3019,-86 657.3019,-122"/>
<text text-anchor="middle" x="578" y="-99.8" font-family="Times,serif" font-size="14.00" fill="#000000">SpeciesDetailComponent</text>
</g>
<!-- SpeciesDetailComponent&#45;&gt;StarWarsApiModule -->
<g id="edge3" class="edge">
<title>SpeciesDetailComponent&#45;&gt;StarWarsApiModule</title>
<path fill="none" stroke="#000000" d="M528.0821,-122.1061C528.0821,-122.1061 528.0821,-140.991 528.0821,-140.991"/>
<polygon fill="#000000" stroke="#000000" points="524.5821,-140.9909 528.0821,-150.991 531.5821,-140.991 524.5821,-140.9909"/>
</g>
<!-- StarWarsStoreModule -->
<g id="node5" class="node">
<title>StarWarsStoreModule</title>
<polygon fill="#8dd3c7" stroke="#000000" points="474.6811,-122 471.6811,-126 450.6811,-126 447.6811,-122 333.3189,-122 333.3189,-86 474.6811,-86 474.6811,-122"/>
<text text-anchor="middle" x="404" y="-99.8" font-family="Times,serif" font-size="14.00" fill="#000000">StarWarsStoreModule</text>
</g>
<!-- StarWarsStoreModule&#45;&gt;StarWarsApiModule -->
<g id="edge4" class="edge">
<title>StarWarsStoreModule&#45;&gt;StarWarsApiModule</title>
<path fill="none" stroke="#000000" d="M449.6378,-122.1061C449.6378,-122.1061 449.6378,-140.991 449.6378,-140.991"/>
<polygon fill="#000000" stroke="#000000" points="446.1379,-140.9909 449.6378,-150.991 453.1379,-140.991 446.1379,-140.9909"/>
</g>
<!-- PlanetService -->
<g id="node6" class="node">
<title>PlanetService</title>
<ellipse fill="#fdb462" stroke="#000000" cx="245" cy="-104" rx="64.2591" ry="18"/>
<text text-anchor="middle" x="245" y="-99.8" font-family="Times,serif" font-size="14.00" fill="#000000">PlanetService</text>
</g>
<!-- PlanetService&#45;&gt;StarWarsApiModule -->
<g id="edge5" class="edge">
<title>PlanetService&#45;&gt;StarWarsApiModule</title>
<path fill="none" stroke="#000000" d="M245,-122.0225C245,-139.3734 245,-163 245,-163 245,-163 414.7529,-163 414.7529,-163"/>
<polygon fill="#000000" stroke="#000000" points="414.7529,-166.5001 424.7529,-163 414.7529,-159.5001 414.7529,-166.5001"/>
</g>
<!-- SpeciesService -->
<g id="node7" class="node">
<title>SpeciesService</title>
<ellipse fill="#fdb462" stroke="#000000" cx="93" cy="-104" rx="69.4761" ry="18"/>
<text text-anchor="middle" x="93" y="-99.8" font-family="Times,serif" font-size="14.00" fill="#000000">SpeciesService</text>
</g>
<!-- SpeciesService&#45;&gt;StarWarsApiModule -->
<g id="edge6" class="edge">
<title>SpeciesService&#45;&gt;StarWarsApiModule</title>
<path fill="none" stroke="#000000" d="M93,-122.2843C93,-143.3211 93,-175 93,-175 93,-175 414.8316,-175 414.8316,-175"/>
<polygon fill="#000000" stroke="#000000" points="414.8317,-178.5001 424.8316,-175 414.8316,-171.5001 414.8317,-178.5001"/>
</g>
</g>
</svg>
